<svg width="300" height="200" viewBox="0 0 300 200" fill="none" xmlns="http://www.w3.org/2000/svg">
<path d="M113.883 145.735H113.887C116.965 145.735 119.818 145.715 121.933 145.688C122.991 145.675 123.86 145.659 124.478 145.644C124.505 145.643 124.531 145.643 124.557 145.642C124.567 145.583 124.58 145.519 124.59 145.449C124.648 145.052 124.704 144.538 124.766 143.86C124.928 142.052 125.024 140.829 125.633 139.32C126.051 138.285 126.713 137.111 127.741 135.392L128.893 133.478C134.291 124.534 137.518 119.562 140.013 116.436V116.435C140.78 115.466 141.94 114.201 143.003 113.125C143.54 112.583 144.07 112.07 144.532 111.651C144.951 111.271 145.437 110.855 145.846 110.609L145.851 110.606C146.505 110.216 147.269 109.896 148.265 109.943C149.104 109.982 149.944 110.284 150.781 110.625L150.782 110.624C151.469 110.898 153.129 111.442 154.437 111.802L154.446 111.804L154.454 111.807C167.154 115.422 182.046 115.388 190.61 111.989L190.615 111.987C194.794 110.341 198.494 107.755 200.387 105.38H200.388L201.111 104.443L202.583 102.533L204.188 104.333L204.989 105.232L204.997 105.24L205.003 105.248C207.053 107.596 209.492 111.657 215.851 123.154C219.961 130.544 221.044 133.018 220.924 136.533V136.547L220.923 136.562C220.868 137.704 220.711 138.717 220.274 139.775C219.851 140.797 219.213 141.746 218.378 142.826C217.837 143.547 216.961 144.677 216.422 145.369C216.378 145.427 216.337 145.486 216.296 145.542C217.643 145.574 219.73 145.595 222.983 145.618L222.982 145.619C225.496 145.628 227.826 145.627 229.554 145.618C230.416 145.613 231.123 145.606 231.625 145.596C231.701 144.972 231.754 143.912 231.809 142.05L231.81 142.046C231.888 139.58 231.978 137.924 232.277 136.193C232.5 134.901 232.834 133.599 233.333 131.909L233.89 130.074C234.355 128.55 234.561 127.82 234.668 127.237C234.742 126.836 234.772 126.488 234.787 125.922L234.797 125.274L234.813 123.545L233.67 120.869C232.931 119.149 231.951 116.594 231.478 115.134C231.112 114.016 230.864 113.219 230.721 112.445C230.573 111.641 230.549 110.922 230.54 109.982V107.545L230.667 107.205L231.957 103.787L231.958 103.782C233.626 99.3947 234.578 95.5524 234.705 93.3677L234.719 92.9526C234.721 92.6152 234.763 92.2801 234.821 91.9976C234.864 91.7867 234.968 91.333 235.218 90.9321L235.237 90.9028L235.255 90.8745C235.477 90.5452 235.866 90.1523 236.469 89.9712C237.072 89.7905 237.61 89.905 237.97 90.0542C238.586 90.3092 238.985 90.7835 239.17 91.019C239.619 91.5879 240.042 92.3916 240.409 93.2104C241.167 94.902 241.941 97.2309 242.39 99.4468L242.389 99.4478C242.91 101.987 243.117 104.536 243.072 107.742C243.279 106.643 243.427 104.994 243.472 103.202C243.522 101.243 243.448 99.2737 243.254 97.8784C242.462 92.2943 240.419 87.1106 236.863 81.8101C235.881 80.3684 234.507 77.94 233.734 76.3735L233.729 76.3647L233.725 76.355C231.591 71.9171 229.805 69.2628 227.119 66.3911C223.524 62.5763 218.687 59.4865 213.429 57.6724L213.419 57.6685C210.991 56.8156 209.514 56.4464 204.828 55.4741C199.703 54.4293 197.542 53.8579 194.247 52.6372L194.241 52.6353C188.169 50.3656 186.542 50.0106 183.704 50.0278H183.692C181.752 50.0278 181.101 50.1087 175.66 51.1069H175.661C172.774 51.6469 172.05 51.6878 167.391 51.7075H167.383C161.731 51.7075 160.046 51.5158 155.012 50.2827H155.011C150.502 49.1755 146.45 47.7667 140.775 45.3345L140.765 45.3306L140.756 45.3267C139.669 44.8475 138.285 44.3601 137.75 44.2183L137.745 44.2173C136.446 43.8701 134.485 43.7879 133.116 43.9917L132.85 44.0356C128.633 44.8531 123.685 47.3068 116.732 52.2896L116.729 52.2915L115.453 53.2104C112.661 55.2419 111.062 56.5652 108.431 58.9448L108.43 58.9458C105.289 61.7826 96.6989 70.9529 94.2495 74.0659H94.2505L93.3325 75.2378L92.4233 76.3979L91.0454 75.8726L89.8247 75.4077C85.3022 73.7094 81.7336 71.68 77.5239 68.4165C77.7912 69.6938 78.1602 71.0671 78.5601 72.1704L78.563 72.1792C80.0708 76.401 83.0344 80.1952 87.1157 83.0249L87.1147 83.0259C87.7623 83.4678 88.305 83.8655 88.6968 84.2427C89.0267 84.5604 89.6525 85.233 89.6733 86.2378L89.6753 86.2368C89.6757 86.2541 89.676 86.272 89.6763 86.2896H89.6753C89.6835 86.9057 89.5611 87.6621 89.4126 88.3696C89.2498 89.1448 89.0183 90.0329 88.7485 90.9438C88.2128 92.7533 87.4902 94.7679 86.7671 96.2886H86.7661C85.9516 98.0407 84.8736 99.7896 83.8198 101.167C83.2917 101.857 82.7424 102.49 82.2075 102.994C81.736 103.438 81.0529 104 80.2563 104.228L80.2397 104.233L80.2222 104.237L80.0659 104.274C79.6814 104.352 79.1779 104.381 78.8071 104.398C78.5464 104.41 78.2581 104.418 77.9556 104.422H77.0513C76.0944 104.422 75.3594 104.405 74.6372 104.285C74.0208 104.182 73.4676 104.013 72.8403 103.792C72.9302 104.236 73.0463 104.743 73.186 105.284C73.5321 106.622 73.9307 107.817 74.1958 108.354L74.1968 108.355C74.3698 108.706 74.5458 109.099 74.6597 109.5C74.7756 109.91 74.8637 110.453 74.7319 111.055C74.4524 112.332 73.4017 112.955 72.8657 113.252L72.8579 113.256L72.8501 113.261C70.8996 114.322 68.5547 114.302 66.2983 113.537C62.3584 112.216 58.8438 109.942 55.8228 106.795L55.8179 106.79L55.812 106.784C54.5103 105.406 52.8816 103.366 51.5396 101.462C51.8033 103.743 52.6231 106.271 54.2378 109.571L54.2417 109.578C56.4824 114.206 58.3138 116.6 65.0181 123.401C66.3765 124.779 67.6782 126.134 68.6851 127.21C69.1876 127.748 69.6223 128.221 69.9565 128.596C70.2516 128.927 70.5644 129.287 70.7358 129.54C71.1476 130.145 71.818 131.373 72.2856 132.348L72.2866 132.347C74.2093 136.293 77.3596 138.297 81.2583 138.313H81.2651C82.4364 138.322 83.0835 138.237 83.6851 138.032C84.3243 137.813 85.0526 137.412 86.3149 136.551V136.55L86.3188 136.547C87.5347 135.723 90.2238 134.092 92.2749 132.928V132.929C95.1597 131.292 96.913 130.224 98.3647 129.148C99.7964 128.087 100.979 126.983 102.687 125.227L102.69 125.224C108.139 119.641 111.957 114.256 114.197 109.096V109.095C114.44 108.527 114.662 108.019 114.859 107.642C114.955 107.458 115.086 107.224 115.25 107.008C115.355 106.872 115.756 106.347 116.489 106.15C116.933 106.031 117.417 106.056 117.864 106.247C118.271 106.421 118.536 106.683 118.688 106.867C118.964 107.201 119.099 107.563 119.158 107.729C119.292 108.109 119.4 108.606 119.496 109.058L119.495 109.059C120.174 112.175 119.869 116.644 119.024 121.014C118.168 125.438 116.7 130.072 114.83 133.562L114.829 133.564L114.488 134.185C112.781 137.24 110.956 139.551 106.916 144.035L106.91 144.041C106.325 144.684 105.846 145.243 105.464 145.721C107.099 145.742 109.702 145.743 113.883 145.735ZM88.0474 113.719C86.841 113.719 85.027 113.495 84.1743 111.882C83.9924 111.543 83.7766 110.995 83.8579 110.312C83.9372 109.646 84.2632 109.155 84.5347 108.837C85.0051 108.287 85.7701 107.753 86.5776 107.208L86.5854 107.204C86.9236 106.978 87.3665 106.673 87.8091 106.365L89.0327 105.501C89.3869 105.247 89.7192 105.018 90.02 104.837C90.2967 104.672 90.6925 104.457 91.1509 104.352C91.6991 104.227 92.3849 104.251 93.0259 104.662C93.5481 104.996 93.8259 105.461 93.9468 105.674L93.9731 105.719L93.9956 105.766C94.2272 106.229 94.2951 106.709 94.3198 107.029C94.3475 107.387 94.3352 107.757 94.2983 108.106C94.2368 108.688 94.089 109.38 93.812 110.003L93.6851 110.266C92.6199 112.305 90.3469 113.689 88.0718 113.718L88.0591 113.719H88.0474Z" stroke="#333333" stroke-width="4"/>
<path d="M192.198 145.618C197.397 145.638 199.698 145.653 200.817 145.526C200.854 145.377 200.898 145.18 200.946 144.947C201.041 144.48 201.142 143.908 201.225 143.355L201.226 143.354C201.44 141.937 201.673 140.817 202.083 139.651C202.488 138.501 203.042 137.374 203.826 135.924L203.827 135.922C205.093 133.589 207.474 129.577 208.406 128.209L208.42 128.189C208.43 128.175 208.448 128.146 208.47 128.104C208.442 128.038 208.41 127.963 208.372 127.879C208.181 127.459 207.9 126.911 207.566 126.333L207.554 126.313C206.128 123.783 202.958 118.223 201.622 115.905C199.723 117.229 196.963 118.927 195.382 119.691L194.775 119.989C195.537 124.734 195.595 125.335 195.494 128.005C195.423 129.909 195.298 131.001 194.951 132.312L194.789 132.892C193.708 136.589 192.044 139.061 188.023 143.336L187.186 144.217C186.739 144.69 186.319 145.146 185.946 145.562C187.302 145.59 189.288 145.601 192.198 145.618Z" stroke="#333333" stroke-width="4"/>
<path d="M148.126 119.162L148.125 119.165C148.144 119.172 148.164 119.177 148.183 119.184C148.163 119.177 148.144 119.169 148.126 119.162ZM150.43 145.656C153.411 145.656 155.868 145.636 157.603 145.603C158.299 145.589 158.871 145.572 159.31 145.555C159.32 145.461 159.328 145.36 159.328 145.254C159.328 145.031 159.251 144.299 158.927 142.298C158.615 140.372 158.1 137.413 157.289 132.871V132.87C156.468 128.259 155.92 125.266 155.541 123.373C155.353 122.433 155.212 121.792 155.105 121.37C155.078 121.359 155.049 121.347 155.019 121.335C154.469 121.126 153.594 120.841 152.241 120.433C151.223 120.129 150.261 119.839 149.529 119.615C149.376 119.568 149.232 119.524 149.099 119.482C148.976 119.6 148.832 119.74 148.667 119.908L148.265 120.325L148.259 120.331L147.919 120.691C146.213 122.541 144.395 125.054 143.384 126.94L143.381 126.945L143.076 127.509L143.932 129.192L143.936 129.199C145.73 132.768 146.585 135.113 146.609 137.479L146.608 137.48C146.621 138.562 146.481 139.518 146.008 140.659C145.682 141.444 145.204 142.3 144.562 143.332L143.866 144.427C143.595 144.852 143.362 145.254 143.168 145.621C144.615 145.647 146.885 145.656 150.43 145.656Z" stroke="#333333" stroke-width="4"/>
</svg>
