<svg width="300" height="200" viewBox="0 0 300 200" fill="none" xmlns="http://www.w3.org/2000/svg">
<path d="M132.48 42.0704C127.832 42.9689 122.598 45.6251 115.566 50.6642C111.875 53.3009 110.156 54.6876 107.09 57.4611C103.867 60.3712 95.1953 69.629 92.6758 72.8321L91.7578 74.004L90.5274 73.5353C85.8985 71.797 82.3242 69.7071 77.832 66.1134C75.8008 64.4923 75.4688 64.3361 75.2149 64.8048C74.8242 65.5275 75.625 69.9415 76.6797 72.8517C78.3399 77.5001 81.5821 81.6212 85.9766 84.6681C87.2656 85.547 87.6758 85.9571 87.6758 86.2892C87.7149 87.7931 86.2891 92.6368 84.961 95.4298C83.4571 98.672 80.9375 101.953 79.707 102.305C79.4141 102.383 78.2422 102.442 77.0508 102.422C75.1367 102.422 74.707 102.344 73.1445 101.777C70.5274 100.84 70.6055 100.84 70.625 102.344C70.6445 103.789 71.6797 107.774 72.4024 109.238C73.0274 110.508 72.9492 110.918 71.8945 111.504C70.5664 112.227 68.8281 112.285 66.9336 111.641C63.3203 110.43 60.0781 108.34 57.2656 105.41C55.586 103.633 53.2813 100.625 51.9141 98.4181C51.0156 96.9532 50.4492 96.5431 49.8633 96.9728C49.5703 97.1876 49.4922 97.5587 49.4531 99.1993C49.336 102.539 50.2149 105.899 52.4414 110.449C54.8242 115.371 56.836 117.949 63.5938 124.805C66.2891 127.539 68.75 130.176 69.082 130.664C69.4141 131.152 70.0391 132.285 70.4883 133.223C72.7149 137.793 76.5235 140.293 81.25 140.313C83.7891 140.332 84.8633 139.961 87.4414 138.203C88.5938 137.422 91.2305 135.82 93.2617 134.668C99.043 131.387 100.645 130.195 104.121 126.621C109.688 120.918 113.672 115.332 116.035 109.883C117.031 107.559 117.129 107.539 117.539 109.473C118.73 114.902 116.563 126.094 113.066 132.617C111.367 135.781 109.707 137.949 105.43 142.695C103.105 145.254 102.109 146.836 102.461 147.402C102.676 147.734 103.398 147.754 113.887 147.734C120.059 147.734 125.332 147.656 125.605 147.598C126.309 147.422 126.504 146.797 126.758 144.043C127.09 140.332 127.09 140.332 130.605 134.512C136.016 125.547 139.18 120.684 141.582 117.676C142.988 115.899 145.996 112.852 146.875 112.324C147.793 111.777 148.359 111.797 150.039 112.481C150.82 112.793 152.559 113.359 153.906 113.731C166.875 117.422 182.246 117.461 191.348 113.848C195.762 112.109 199.805 109.336 201.973 106.602L202.695 105.664L203.496 106.563C205.371 108.711 207.695 112.539 214.102 124.121C218.262 131.602 219.023 133.594 218.926 136.465C218.828 138.477 218.398 139.531 216.797 141.602C216.27 142.305 215.391 143.438 214.844 144.141C213.75 145.567 213.281 146.719 213.613 147.227C213.789 147.52 214.688 147.559 222.969 147.617C228.008 147.637 232.324 147.617 232.559 147.559C233.555 147.324 233.672 146.738 233.809 142.109C233.965 137.188 234.16 135.977 235.801 130.664C236.719 127.656 236.777 127.285 236.797 125.293L236.816 123.145L235.508 120.078C234.785 118.399 233.828 115.899 233.379 114.512C232.637 112.246 232.559 111.817 232.539 109.961V107.91L233.828 104.492C235.625 99.7657 236.699 95.4298 236.719 92.9689C236.719 92.5978 236.816 92.1486 236.914 91.9923C237.52 91.0939 239.59 95.7032 240.43 99.8439C241.055 102.891 241.211 105.996 240.977 110.586C240.781 114.258 240.781 114.668 241.094 115.117C242.148 116.738 243.691 114.082 244.961 108.496C245.527 105.957 245.664 100.684 245.234 97.5978C244.395 91.6798 242.227 86.2111 238.516 80.6837C237.598 79.3361 236.27 76.9923 235.527 75.4884C233.32 70.8986 231.426 68.0665 228.574 65.0196C224.746 60.9571 219.629 57.6954 214.082 55.7814C211.523 54.8829 209.941 54.4923 205.234 53.5157C200.156 52.4806 198.105 51.9337 194.941 50.7618C188.828 48.4767 186.914 48.0079 183.691 48.0275C181.543 48.0275 180.723 48.1446 175.293 49.1407C172.578 49.6486 171.992 49.6876 167.383 49.7071C161.875 49.7071 160.352 49.5314 155.488 48.34C151.113 47.2657 147.168 45.8986 141.563 43.4962C140.41 42.9884 138.926 42.4611 138.262 42.2853C136.582 41.8361 134.141 41.7579 132.48 42.0704ZM92.2071 106.66C92.461 107.168 92.3242 108.555 91.9141 109.336C91.1914 110.723 89.5899 111.699 88.0469 111.719C86.8946 111.719 86.211 111.465 85.9375 110.938C85.6446 110.391 85.9571 110.039 87.6953 108.867C88.3985 108.399 89.5117 107.617 90.1953 107.129C91.5821 106.133 91.875 106.074 92.2071 106.66Z" fill="#333333"/>
<path d="M201.562 113.477C199.961 114.727 196.328 117.012 194.512 117.891L192.559 118.848L192.676 119.531C193.555 124.981 193.594 125.332 193.496 127.93C193.418 130 193.281 130.938 192.871 132.324C191.855 135.801 190.312 138.067 185.742 142.832C184.102 144.57 182.773 146.113 182.695 146.406C182.402 147.598 182.07 147.559 192.187 147.617C202.402 147.656 202.109 147.695 202.637 146.426C202.773 146.074 203.027 144.824 203.203 143.653C203.613 140.938 204.043 139.727 205.586 136.875C206.836 134.57 209.18 130.625 210.059 129.336C210.332 128.945 210.547 128.379 210.547 128.067C210.547 127.754 210.019 126.582 209.297 125.332C207.734 122.559 204.082 116.153 203.027 114.336L202.227 112.949L201.562 113.477Z" fill="#333333"/>
<path d="M146.816 118.945C144.902 120.938 142.793 123.809 141.621 125.996L140.82 127.48L142.148 130.098C143.926 133.633 144.59 135.625 144.609 137.5C144.629 139.199 144.199 140.234 142.188 143.34C141.016 145.176 140.352 146.816 140.566 147.363C140.645 147.617 142.031 147.656 150.43 147.656C156.406 147.656 160.313 147.578 160.547 147.461C160.996 147.227 161.328 146.27 161.328 145.254C161.328 144.414 160.879 141.602 159.258 132.52C157.617 123.301 157.051 120.469 156.758 120.02C156.563 119.727 155.527 119.336 152.813 118.516C150.781 117.91 148.984 117.363 148.809 117.285C148.594 117.207 148.008 117.695 146.816 118.945Z" fill="#333333"/>
</svg>
